<mxfile host="Electron" agent="Mozilla/5.0 (Windows NT 10.0; Win64; x64) AppleWebKit/537.36 (KHTML, like Gecko) draw.io/26.2.2 Chrome/134.0.6998.178 Electron/35.1.2 Safari/537.36" version="26.2.2" pages="3">
  <diagram name="传输层" id="ybnlH0JiNTfmTyi-huAb">
    <mxGraphModel dx="985" dy="580" grid="1" gridSize="10" guides="1" tooltips="1" connect="1" arrows="1" fold="1" page="1" pageScale="1" pageWidth="827" pageHeight="1169" math="0" shadow="0">
      <root>
        <mxCell id="0" />
        <mxCell id="1" parent="0" />
        <mxCell id="blMikcqvSA7-ySmc0CwE-2" value="" style="shape=flexArrow;endArrow=none;html=1;rounded=0;strokeColor=#6c8ebf;startFill=0;fillColor=#dae8fc;" edge="1" parent="1">
          <mxGeometry width="50" height="50" relative="1" as="geometry">
            <mxPoint x="290" y="670" as="sourcePoint" />
            <mxPoint x="290" y="110" as="targetPoint" />
          </mxGeometry>
        </mxCell>
        <mxCell id="blMikcqvSA7-ySmc0CwE-3" value="客户端" style="rounded=0;whiteSpace=wrap;html=1;fillColor=#dae8fc;strokeColor=#6c8ebf;" vertex="1" parent="1">
          <mxGeometry x="250" y="60" width="80" height="40" as="geometry" />
        </mxCell>
        <mxCell id="blMikcqvSA7-ySmc0CwE-4" value="CLOSED" style="text;html=1;align=center;verticalAlign=middle;whiteSpace=wrap;rounded=0;" vertex="1" parent="1">
          <mxGeometry x="220" y="110" width="60" height="30" as="geometry" />
        </mxCell>
        <mxCell id="blMikcqvSA7-ySmc0CwE-5" value="服务器" style="rounded=0;whiteSpace=wrap;html=1;fillColor=#f8cecc;strokeColor=#b85450;" vertex="1" parent="1">
          <mxGeometry x="460" y="60" width="80" height="40" as="geometry" />
        </mxCell>
        <mxCell id="blMikcqvSA7-ySmc0CwE-6" value="" style="shape=flexArrow;endArrow=none;html=1;rounded=0;strokeColor=#b85450;startFill=0;fillColor=#f8cecc;" edge="1" parent="1">
          <mxGeometry width="50" height="50" relative="1" as="geometry">
            <mxPoint x="499.65999999999997" y="670" as="sourcePoint" />
            <mxPoint x="499.65999999999997" y="110" as="targetPoint" />
          </mxGeometry>
        </mxCell>
        <mxCell id="blMikcqvSA7-ySmc0CwE-7" value="CLOSED" style="text;html=1;align=center;verticalAlign=middle;whiteSpace=wrap;rounded=0;" vertex="1" parent="1">
          <mxGeometry x="510" y="110" width="60" height="30" as="geometry" />
        </mxCell>
        <mxCell id="blMikcqvSA7-ySmc0CwE-8" value="LISTEN" style="text;html=1;align=center;verticalAlign=middle;whiteSpace=wrap;rounded=0;" vertex="1" parent="1">
          <mxGeometry x="510" y="150" width="60" height="30" as="geometry" />
        </mxCell>
        <mxCell id="blMikcqvSA7-ySmc0CwE-9" value="SYN_SENT" style="text;html=1;align=center;verticalAlign=middle;whiteSpace=wrap;rounded=0;" vertex="1" parent="1">
          <mxGeometry x="220" y="180" width="60" height="30" as="geometry" />
        </mxCell>
        <mxCell id="blMikcqvSA7-ySmc0CwE-10" value="" style="endArrow=classic;html=1;rounded=0;" edge="1" parent="1">
          <mxGeometry width="50" height="50" relative="1" as="geometry">
            <mxPoint x="300" y="200" as="sourcePoint" />
            <mxPoint x="400" y="230" as="targetPoint" />
          </mxGeometry>
        </mxCell>
        <mxCell id="blMikcqvSA7-ySmc0CwE-11" value="SYN&lt;br&gt;ISN = 1000" style="text;html=1;align=center;verticalAlign=middle;whiteSpace=wrap;rounded=0;" vertex="1" parent="1">
          <mxGeometry x="340" y="180" width="70" height="30" as="geometry" />
        </mxCell>
        <mxCell id="blMikcqvSA7-ySmc0CwE-12" value="SN：序列号&lt;br&gt;ISN：初始序列号" style="text;html=1;align=center;verticalAlign=middle;whiteSpace=wrap;rounded=0;" vertex="1" parent="1">
          <mxGeometry x="350" y="110" width="100" height="30" as="geometry" />
        </mxCell>
        <mxCell id="blMikcqvSA7-ySmc0CwE-13" value="SYN_SENT" style="text;html=1;align=center;verticalAlign=middle;whiteSpace=wrap;rounded=0;" vertex="1" parent="1">
          <mxGeometry x="220" y="250" width="60" height="30" as="geometry" />
        </mxCell>
        <mxCell id="blMikcqvSA7-ySmc0CwE-14" value="" style="endArrow=classic;html=1;rounded=0;" edge="1" parent="1">
          <mxGeometry width="50" height="50" relative="1" as="geometry">
            <mxPoint x="300" y="270" as="sourcePoint" />
            <mxPoint x="400" y="300" as="targetPoint" />
          </mxGeometry>
        </mxCell>
        <mxCell id="blMikcqvSA7-ySmc0CwE-15" value="SYN&lt;br&gt;ISN = 1100" style="text;html=1;align=center;verticalAlign=middle;whiteSpace=wrap;rounded=0;" vertex="1" parent="1">
          <mxGeometry x="340" y="250" width="70" height="30" as="geometry" />
        </mxCell>
        <mxCell id="blMikcqvSA7-ySmc0CwE-16" value="网络阻塞" style="text;html=1;align=center;verticalAlign=middle;whiteSpace=wrap;rounded=0;" vertex="1" parent="1">
          <mxGeometry x="410" y="210" width="70" height="30" as="geometry" />
        </mxCell>
        <mxCell id="blMikcqvSA7-ySmc0CwE-17" value="超时&lt;br&gt;再次建立连接" style="text;html=1;align=center;verticalAlign=middle;whiteSpace=wrap;rounded=0;" vertex="1" parent="1">
          <mxGeometry x="130" y="250" width="80" height="30" as="geometry" />
        </mxCell>
        <mxCell id="blMikcqvSA7-ySmc0CwE-18" value="" style="endArrow=classic;html=1;rounded=0;" edge="1" parent="1">
          <mxGeometry width="50" height="50" relative="1" as="geometry">
            <mxPoint x="395" y="370" as="sourcePoint" />
            <mxPoint x="495" y="400" as="targetPoint" />
          </mxGeometry>
        </mxCell>
        <mxCell id="blMikcqvSA7-ySmc0CwE-20" value="SYN_RCVD" style="text;html=1;align=center;verticalAlign=middle;whiteSpace=wrap;rounded=0;" vertex="1" parent="1">
          <mxGeometry x="510" y="390" width="60" height="30" as="geometry" />
        </mxCell>
        <mxCell id="blMikcqvSA7-ySmc0CwE-21" value="" style="endArrow=classic;html=1;rounded=0;" edge="1" parent="1" source="blMikcqvSA7-ySmc0CwE-19">
          <mxGeometry width="50" height="50" relative="1" as="geometry">
            <mxPoint x="490" y="410" as="sourcePoint" />
            <mxPoint x="300" y="450" as="targetPoint" />
          </mxGeometry>
        </mxCell>
        <mxCell id="blMikcqvSA7-ySmc0CwE-23" value="&lt;font style=&quot;color: rgb(255, 88, 16);&quot;&gt;旧SYN先抵达&lt;/font&gt;" style="text;html=1;align=center;verticalAlign=middle;whiteSpace=wrap;rounded=0;" vertex="1" parent="1">
          <mxGeometry x="310" y="310" width="140" height="30" as="geometry" />
        </mxCell>
        <mxCell id="blMikcqvSA7-ySmc0CwE-27" value="" style="endArrow=classic;html=1;rounded=0;" edge="1" parent="1" target="blMikcqvSA7-ySmc0CwE-19">
          <mxGeometry width="50" height="50" relative="1" as="geometry">
            <mxPoint x="490" y="410" as="sourcePoint" />
            <mxPoint x="310" y="450" as="targetPoint" />
          </mxGeometry>
        </mxCell>
        <mxCell id="blMikcqvSA7-ySmc0CwE-19" value="SYN+ACK&lt;br&gt;ACK: 1001&lt;br&gt;ISN: 2000" style="text;html=1;align=center;verticalAlign=middle;whiteSpace=wrap;rounded=0;" vertex="1" parent="1">
          <mxGeometry x="360" y="410" width="80" height="40" as="geometry" />
        </mxCell>
        <mxCell id="blMikcqvSA7-ySmc0CwE-28" value="RST_SEND" style="text;html=1;align=center;verticalAlign=middle;whiteSpace=wrap;rounded=0;" vertex="1" parent="1">
          <mxGeometry x="200" y="440" width="80" height="30" as="geometry" />
        </mxCell>
        <mxCell id="blMikcqvSA7-ySmc0CwE-29" value="客户端&lt;br&gt;预期收到ACK = 1101（新报文）&lt;div&gt;实际收到ACK = 1001（旧报文）&lt;br&gt;终止连接&lt;/div&gt;" style="text;html=1;align=left;verticalAlign=middle;whiteSpace=wrap;rounded=0;" vertex="1" parent="1">
          <mxGeometry x="100" y="370" width="180" height="60" as="geometry" />
        </mxCell>
        <mxCell id="blMikcqvSA7-ySmc0CwE-30" value="" style="endArrow=classic;html=1;rounded=0;" edge="1" parent="1" source="blMikcqvSA7-ySmc0CwE-32">
          <mxGeometry width="50" height="50" relative="1" as="geometry">
            <mxPoint x="300" y="480" as="sourcePoint" />
            <mxPoint x="490" y="530" as="targetPoint" />
          </mxGeometry>
        </mxCell>
        <mxCell id="blMikcqvSA7-ySmc0CwE-31" value="SYN&lt;br&gt;ISN = 1000" style="text;html=1;align=center;verticalAlign=middle;whiteSpace=wrap;rounded=0;" vertex="1" parent="1">
          <mxGeometry x="410" y="340" width="70" height="30" as="geometry" />
        </mxCell>
        <mxCell id="blMikcqvSA7-ySmc0CwE-33" value="" style="endArrow=classic;html=1;rounded=0;" edge="1" parent="1" target="blMikcqvSA7-ySmc0CwE-32">
          <mxGeometry width="50" height="50" relative="1" as="geometry">
            <mxPoint x="300" y="480" as="sourcePoint" />
            <mxPoint x="490" y="540" as="targetPoint" />
          </mxGeometry>
        </mxCell>
        <mxCell id="blMikcqvSA7-ySmc0CwE-32" value="RST" style="text;html=1;align=center;verticalAlign=middle;whiteSpace=wrap;rounded=0;" vertex="1" parent="1">
          <mxGeometry x="360" y="490" width="70" height="30" as="geometry" />
        </mxCell>
        <mxCell id="blMikcqvSA7-ySmc0CwE-34" value="CLOSED" style="text;html=1;align=center;verticalAlign=middle;whiteSpace=wrap;rounded=0;" vertex="1" parent="1">
          <mxGeometry x="510" y="520" width="60" height="30" as="geometry" />
        </mxCell>
        <mxCell id="blMikcqvSA7-ySmc0CwE-35" value="" style="endArrow=classic;html=1;rounded=0;" edge="1" parent="1">
          <mxGeometry width="50" height="50" relative="1" as="geometry">
            <mxPoint x="370" y="590" as="sourcePoint" />
            <mxPoint x="470" y="620" as="targetPoint" />
          </mxGeometry>
        </mxCell>
        <mxCell id="blMikcqvSA7-ySmc0CwE-36" value="SYN&lt;br&gt;ISN = 1100" style="text;html=1;align=center;verticalAlign=middle;whiteSpace=wrap;rounded=0;" vertex="1" parent="1">
          <mxGeometry x="410" y="570" width="70" height="30" as="geometry" />
        </mxCell>
        <mxCell id="blMikcqvSA7-ySmc0CwE-37" value="&lt;font style=&quot;color: rgb(255, 88, 16);&quot;&gt;新SYN抵达&lt;/font&gt;" style="text;html=1;align=center;verticalAlign=middle;whiteSpace=wrap;rounded=0;" vertex="1" parent="1">
          <mxGeometry x="320" y="540" width="140" height="30" as="geometry" />
        </mxCell>
        <mxCell id="blMikcqvSA7-ySmc0CwE-38" value="SYN_RCBD" style="text;html=1;align=center;verticalAlign=middle;whiteSpace=wrap;rounded=0;" vertex="1" parent="1">
          <mxGeometry x="510" y="610" width="60" height="30" as="geometry" />
        </mxCell>
        <mxCell id="blMikcqvSA7-ySmc0CwE-39" value="&lt;font style=&quot;color: rgb(255, 88, 16);&quot;&gt;后续正常连接&lt;/font&gt;" style="text;html=1;align=center;verticalAlign=middle;whiteSpace=wrap;rounded=0;" vertex="1" parent="1">
          <mxGeometry x="320" y="640" width="140" height="30" as="geometry" />
        </mxCell>
      </root>
    </mxGraphModel>
  </diagram>
  <diagram id="f1mAXzt7yV5YMN0dEYzS" name="线程">
    <mxGraphModel dx="1428" dy="841" grid="1" gridSize="10" guides="1" tooltips="1" connect="1" arrows="1" fold="1" page="1" pageScale="1" pageWidth="827" pageHeight="1169" math="0" shadow="0">
      <root>
        <mxCell id="0" />
        <mxCell id="1" parent="0" />
      </root>
    </mxGraphModel>
  </diagram>
  <diagram id="qqpEA9WXnvkRVV65vLz4" name="进程间通信">
    <mxGraphModel dx="1428" dy="841" grid="1" gridSize="10" guides="1" tooltips="1" connect="1" arrows="1" fold="1" page="1" pageScale="1" pageWidth="827" pageHeight="1169" math="0" shadow="0">
      <root>
        <mxCell id="0" />
        <mxCell id="1" parent="0" />
      </root>
    </mxGraphModel>
  </diagram>
</mxfile>
